PathFileType	4	(X/Y/Z)	C:/Users/opensim2020/Desktop/walking_exp_matlab/subject01_walking05_straight_02.trc																																																																																																																															
DataRate	CameraRate	NumFrames	NumMarkers	Units	OrigDataRate	OrigDataStartFrame	OrigNumFrames																																																																																																																											
100	100	5	43	mm	100	1629	205																																																																																																																											
Frame#	Time	LFHD			RFHD			LBHD			RBHD			C7			T10			CLAV			STRN			RBAK			LSHO			LUPA			LELB			LFRM			LWRA			LWRB			LFIN			RSHO			RUPA			RELB			RFRM			RWRA			RWRB			RFIN			LASI			RASI			LPSI			RPSI			LTHI			LKNE			LTIB			LANK			LHEE			LTOE			RTHI			RKNE			RTIB			RANK			RHEE			RTOE			*39			*40			*41			*42		
		X1	Y1	Z1	X2	Y2	Z2	X3	Y3	Z3	X4	Y4	Z4	X5	Y5	Z5	X6	Y6	Z6	X7	Y7	Z7	X8	Y8	Z8	X9	Y9	Z9	X10	Y10	Z10	X11	Y11	Z11	X12	Y12	Z12	X13	Y13	Z13	X14	Y14	Z14	X15	Y15	Z15	X16	Y16	Z16	X17	Y17	Z17	X18	Y18	Z18	X19	Y19	Z19	X20	Y20	Z20	X21	Y21	Z21	X22	Y22	Z22	X23	Y23	Z23	X24	Y24	Z24	X25	Y25	Z25	X26	Y26	Z26	X27	Y27	Z27	X28	Y28	Z28	X29	Y29	Z29	X30	Y30	Z30	X31	Y31	Z31	X32	Y32	Z32	X33	Y33	Z33	X34	Y34	Z34	X35	Y35	Z35	X36	Y36	Z36	X37	Y37	Z37	X38	Y38	Z38	X39	Y39	Z39	X40	Y40	Z40	X41	Y41	Z41	X42	Y42	Z42	X43	Y43	Z43
																																																																																																																																		
154	1.53	426.5394	1650.17981	-1518.40234	437.66797	1654.23926	-1404.08289	306.37967	1615.02246	-1513.7074	314.67081	1618.82336	-1392.48499	249.0347	1421.31787	-1471.50256	210.30295	1127.42554	-1453.82922	392.30374	1347.64783	-1468.28455	431.38864	1194.33655	-1473.56042	191.99245	1225.83752	-1393.35083	329.79822	1380.35486	-1629.04688	317.80728	1205.02295	-1725.88953	338.66852	1054.80859	-1751.77527	433.70425	990.43817	-1782.927	564.7088	946.11169	-1765.82581	525.52002	912.38904	-1797.28247	606.38507	893.94244	-1810.19836	327.58209	1380.10974	-1316.22974	239.97328	1187.90527	-1223.54004	221.24216	1065.55823	-1223.18677	223.94167	945.67126	-1190.77771	282.18924	815.26868	-1202.23511	236.40617	825.39545	-1167.6731	256.5394	740.95905	-1168.97974	373.58356	918.09058	-1568.29553	392.68448	923.23096	-1351.9856	192.90419	933.2276	-1494.42407	207.74753	933.12695	-1350.56226	280.67615	591.6347	-1603.71619	241.86047	460.10068	-1582.3468	145.49956	295.34869	-1582.16699	67.54543	90.90761	-1518.60144	18.91018	73.46851	-1464.27478	205.94525	31.82437	-1523.25464	409.2883	594.98651	-1286.24548	467.45676	452.81934	-1324.48035	476.73438	280.27097	-1321.13245	539.52899	79.41997	-1370.19897	511.79782	29.2056	-1425.99585	685.3559	85.77633	-1367.72815	428.27261	1688.63586	-1427.2179	-1973.17651	1023.57184	3101.93945	-2012.57739	1022.039	3140.70483	NaN	NaN	NaN
155	1.54	436.66281	1649.39319	-1516.82373	447.8075	1653.38208	-1402.50452	316.5018	1614.32947	-1512.25793	324.70529	1618.01892	-1391.02771	259.04822	1420.48938	-1470.21973	220.64256	1126.4325	-1453.01257	402.33197	1346.94531	-1466.98145	441.49802	1193.65186	-1472.3866	202.06914	1224.79626	-1392.47717	339.96402	1379.78784	-1627.71631	328.06934	1204.88257	-1725.00439	349.0408	1054.88635	-1751.72485	444.41595	990.72266	-1782.4812	575.37866	946.64825	-1764.70654	536.55408	912.9632	-1796.52917	617.51819	894.82605	-1808.96106	337.19623	1378.7793	-1315.08008	249.77559	1186.57898	-1222.6228	231.02042	1064.23291	-1222.45752	233.52682	944.40979	-1190.25403	290.97678	813.71594	-1202.00317	245.52036	824.09564	-1167.40063	265.55148	739.56641	-1168.66895	384.20352	917.4234	-1567.89941	403.49994	922.38715	-1351.43384	203.64842	932.31433	-1493.76392	218.47974	931.98914	-1349.94421	290.20651	591.40332	-1603.87793	250.39012	459.99231	-1582.89941	151.26787	296.78391	-1582.93005	69.17863	93.7859	-1519.82385	20.0655	77.59666	-1465.55554	206.00545	31.56366	-1523.41431	420.05911	593.87152	-1287.57129	477.44394	451.79022	-1325.75378	487.16766	279.3175	-1323.28516	550.30243	78.38876	-1373.0022	522.96039	28.36899	-1429.28723	695.99652	85.05544	-1369.98047	438.32849	1687.78442	-1425.59656	-1973.01233	1023.8056	3101.93652	-2012.55566	1021.95074	3140.61157	NaN	NaN	NaN
156	1.55	446.80441	1648.68018	-1515.14722	457.83307	1652.53967	-1400.80408	326.62286	1613.66394	-1510.66602	334.77341	1617.22449	-1389.41333	269.09903	1419.65454	-1468.85632	231.09657	1125.49597	-1452.22937	412.48141	1346.32825	-1465.51868	451.90091	1193.08008	-1471.17358	212.17087	1223.74268	-1391.5719	350.18488	1379.37061	-1626.32092	338.24768	1204.75549	-1723.96838	359.24164	1054.922	-1751.41968	454.75	990.79297	-1781.83264	585.69946	946.87335	-1763.52356	547.07678	913.17883	-1795.57166	628.09528	895.03815	-1807.59399	346.81796	1377.74805	-1313.69519	259.68381	1185.31958	-1221.66235	240.95219	1062.99011	-1221.65479	243.21373	943.12146	-1189.62769	300.91928	812.46912	-1201.24866	255.12537	822.77087	-1166.79871	274.83591	738.17407	-1168.19714	395.08597	916.92371	-1567.43628	414.51151	921.70807	-1350.7937	214.48413	931.51477	-1493.2002	229.23886	930.83868	-1349.42712	300.2131	591.06818	-1604.00928	259.53708	459.75751	-1583.45825	157.24028	298.40936	-1583.82898	70.9516	96.74767	-1521.08984	21.28762	81.8379	-1467.13037	206.17484	31.55325	-1523.67078	431.57715	593.20471	-1289.08179	488.02533	450.75998	-1326.87927	496.8013	277.5195	-1325.35889	558.67328	76.61164	-1376.3667	531.54041	27.23321	-1432.76868	704.44562	83.00654	-1372.05688	448.55331	1687.04663	-1423.96277	-1973.08398	1023.14319	3101.9021	-2012.62598	1022.13409	3140.52002	NaN	NaN	NaN
157	1.56	456.88593	1647.90015	-1513.40735	467.90454	1651.70813	-1399.04565	336.66693	1612.94519	-1509.02551	344.75342	1616.54211	-1387.71753	279.12546	1418.7041	-1467.37634	241.74261	1124.48181	-1451.42822	422.53592	1345.58398	-1463.91492	462.20822	1192.42468	-1469.75842	222.43181	1222.62244	-1390.63208	360.50589	1378.88513	-1624.7251	348.3829	1204.59644	-1722.77173	369.23874	1054.97473	-1750.89124	464.79196	990.5791	-1781.00684	595.64166	946.62854	-1762.25098	557.14587	912.995	-1794.50293	638.16223	894.91638	-1806.22656	356.52917	1376.98853	-1312.21484	269.68768	1184.05859	-1220.56104	251.056	1061.79834	-1220.80383	253.18611	941.90082	-1188.86658	310.67856	811.14465	-1200.56128	264.71945	821.49445	-1166.21326	284.53659	736.94135	-1167.72607	406.3176	916.33636	-1566.87439	425.64865	921.03967	-1350.06506	225.72656	930.6889	-1492.65833	240.32312	929.66333	-1348.9823	310.68637	590.55255	-1604.18262	269.31448	459.39087	-1584.03333	163.93294	299.83945	-1584.73315	73.03768	99.89166	-1522.54968	22.90779	86.51572	-1468.80237	206.34804	31.49191	-1523.98401	443.41974	592.42706	-1290.48962	499.02451	449.78494	-1328.1842	506.18793	275.89081	-1327.42969	565.20496	74.72315	-1379.38501	537.32355	26.28472	-1436.19653	710.75824	79.48726	-1373.97729	458.51025	1686.18616	-1422.1178	-1973.11951	1023.40417	3101.82813	-2012.47229	1021.97601	3140.76001	NaN	NaN	NaN
158	1.57	466.87744	1647.11145	-1511.57349	477.94006	1650.9104	-1397.19995	346.71097	1612.24951	-1507.20959	354.74887	1615.76379	-1385.95093	289.14609	1417.75525	-1465.69849	252.64058	1123.41907	-1450.50781	432.79208	1344.96619	-1462.29517	472.78003	1191.94312	-1468.31311	232.84679	1221.39673	-1389.62415	370.80774	1378.40588	-1623.02405	358.53235	1204.43274	-1721.47217	379.01953	1054.90613	-1750.10925	474.44684	990.25867	-1780.01233	605.23553	945.97949	-1760.82495	566.71588	912.43341	-1793.26086	647.8255	893.9848	-1804.63794	366.35602	1375.93005	-1310.65186	279.68958	1182.80408	-1219.42529	261.12595	1060.59631	-1219.82275	263.35556	940.73279	-1188.03259	320.83054	810.04944	-1199.82263	274.82169	820.28387	-1165.52539	294.58731	735.67773	-1166.97839	417.70029	915.74408	-1566.34314	437.05997	920.40747	-1349.27051	237.13145	929.92902	-1492.21216	251.57071	928.38495	-1348.48328	321.5545	589.93481	-1604.27734	279.64722	458.85754	-1584.56116	171.11494	301.27289	-1585.64392	75.40155	103.46896	-1524.20166	24.82102	91.3654	-1470.50745	206.46301	31.6967	-1524.52161	455.81161	591.96936	-1291.90027	510.47711	448.83682	-1329.51025	514.90607	274.23254	-1329.51038	569.80231	72.42874	-1382.53882	540.4621	26.21049	-1438.34509	715.41211	75.01974	-1376.40283	468.60425	1685.38062	-1420.28931	-1973.07373	1023.44904	3101.97437	-2012.47546	1021.95923	3140.66284	NaN	NaN	NaN
